Format : AVI
Format/Info : Audio Video Interleave
File size : 788 MiB
Duration : 1h 23mn
Overall bit rate : 1 326 Kbps
Writing library : VirtualDub build 32842/release

Video
ID : 0
Format : MPEG-4 Visual
Format profile : Advanced Simple@L5
Format settings, BVOP : 1
Format settings, QPel : No
Format settings, GMC : No warppoints
Format settings, Matrix : Default (H.263)
Muxing mode : Packed bitstream
Codec ID : XVID
Codec ID/Hint : XviD
Duration : 1h 23mn
Bit rate : 1 188 Kbps
Width : 524 pixels
Height : 222 pixels
Display aspect ratio : 2.35:1
Frame rate : 25.000 fps
Color space : YUV
Chroma subsampling : 4:2:0
Bit depth : 8 bits
Scan type : Progressive
Compression mode : Lossy
Bits/(Pixel*Frame) : 0.409
Stream size : 706 MiB (90%)
Writing library : XviD 64

Audio
ID : 1
Format : MPEG Audio
Format version : Version 1
Format profile : Layer 3
Codec ID : 55
Codec ID/Hint : MP3
Duration : 1h 23mn
Bit rate mode : Constant
Bit rate : 128 Kbps
Channel(s) : 2 channels
Sampling rate : 44.1 KHz
Compression mode : Lossy
Delay relative to video : 16ms
Stream size : 76.0 MiB (10%)
Alignment : Split accross interleaves
Interleave, duration : 40 ms (1.00 video frame)
Interleave, preload duration : 500 ms
 
http://www.imdb.com/title/tt1093357/


Ratings: 5.5/10 from 911 users Metascore: 28/100 
Reviews: 15 user | 8 critic | 4 from Metacritic.com

In Moscow, five young people lead the charge against an alien race who have attacked Earth via our power supply.
Director:
Chris Gorak
Writers:
Jon Spaihts (screenplay), Leslie Bohem (story), and 2 more credits »
Stars:
Emile Hirsch, Olivia Thirlby and Max Minghella 
 
http://img209.imageshack.us/img209/885/vlcsnap2011122806h21m16.png 
http://img839.imageshack.us/img839/1558/vlcsnap2011122806h25m21.png 
http://img545.imageshack.us/img545/3478/vlcsnap2011122807h12m19.png 
http://img208.imageshack.us/img208/3365/vlcsnap2011122806h26m51.png 
http://img339.imageshack.us/img339/1247/vlcsnap2011122807h21m24.png

Source Used





Unknown...............Thanks/


V2 as i thought i would have a crack at this wonderful vid ;-)




One for 100% cam lovers around the world :-) 


Vid is not great at all not a great deal can be done with it so hopefully a better source shows 


Done what i can with this but not gonna be good enough for most.Vid had loads of noise/flicker/glare/scroll denoised heavily then slight sharpen back up

Added more saturation .........played with the levels filter (no not like that) to try and brighten it up abit......rest is blah blah ....probs abit like this release


Check out the sample included its needed 



One last thing i noticed this seems to get playback errors in vlc player towards the end if you skip abit but media player plays it fine so lets hope you learned to read descriptions 

Lets face it this is hardly one to watch on a big TV 
